<?xml version="1.0" standalone="no"?>
<!DOCTYPE svg PUBLIC "-//W3C//DTD SVG 20010904//EN"
 "http://www.w3.org/TR/2001/REC-SVG-20010904/DTD/svg10.dtd">
<svg version="1.0" xmlns="http://www.w3.org/2000/svg"
 width="666.000000pt" height="666.000000pt" viewBox="0 0 666.000000 666.000000"
 preserveAspectRatio="xMidYMid meet">
<metadata>
Created by potrace 1.14, written by Peter Selinger 2001-2017
</metadata>
<g transform="translate(0.000000,666.000000) scale(0.100000,-0.100000)"
fill="#000000" stroke="none">
<path d="M3284 5782 c-38 -24 -64 -77 -64 -132 0 -38 -6 -49 -66 -114 -37 -39
-99 -120 -138 -179 -52 -79 -77 -109 -96 -113 -14 -3 -59 -14 -100 -24 l-75
-19 -33 34 c-84 84 -232 56 -278 -52 -8 -18 -14 -49 -14 -70 0 -37 -3 -39 -75
-80 -71 -41 -105 -52 -105 -35 0 16 -71 42 -113 42 -89 0 -167 -75 -169 -163
0 -26 5 -61 12 -78 13 -30 12 -32 -36 -79 -47 -47 -51 -49 -116 -53 l-66 -4
-21 38 c-74 130 -271 104 -308 -41 -9 -33 -12 -36 -84 -53 -41 -10 -78 -19
-84 -21 -70 -18 -77 -18 -103 7 -112 107 -294 34 -294 -117 0 -40 -2 -43 -51
-71 -29 -16 -85 -51 -125 -78 -71 -48 -75 -49 -111 -38 -52 15 -83 14 -129 -5
-43 -17 -77 -51 -93 -92 -14 -35 -14 -105 0 -130 9 -17 7 -26 -12 -49 -33 -41
-102 -151 -127 -203 -18 -37 -32 -51 -73 -70 -101 -48 -130 -177 -59 -262 9
-11 12 -29 8 -55 -4 -21 -9 -101 -13 -178 -5 -128 -8 -142 -29 -163 -71 -72
-49 -194 47 -262 16 -12 28 -24 26 -27 -3 -2 4 -32 15 -66 10 -34 21 -69 23
-78 2 -9 24 -66 48 -128 43 -107 45 -114 31 -146 -18 -44 -10 -110 19 -152 25
-37 82 -72 122 -75 20 -2 37 -17 69 -63 66 -94 81 -111 233 -262 l144 -143 -1
-117 c-1 -65 -1 -125 -1 -133 1 -14 270 -15 2511 -15 l2510 -1 0 134 0 134
139 136 c76 76 170 180 209 232 56 75 77 96 98 98 41 3 97 39 124 80 26 40 32
121 11 161 -9 17 -4 38 29 118 23 54 55 143 71 198 16 55 37 106 47 112 69 50
92 97 92 192 0 42 -5 60 -21 77 -19 20 -22 37 -25 141 -3 116 -11 203 -20 212
-2 2 8 24 22 48 28 49 38 122 21 163 -17 39 -67 88 -102 100 -26 9 -40 25 -70
83 -20 40 -59 102 -86 139 -45 62 -47 70 -37 98 24 71 -11 167 -77 206 -36 22
-147 26 -166 7 -10 -10 -20 -7 -48 15 -20 15 -78 52 -129 83 l-94 56 -2 51
c-8 143 -180 208 -287 108 l-30 -29 -115 29 c-104 25 -117 30 -125 53 -17 49
-34 74 -71 104 -31 25 -47 30 -92 31 -45 1 -61 -4 -97 -29 -23 -16 -49 -44
-58 -60 -16 -30 -18 -31 -84 -29 l-68 2 -49 54 c-38 42 -46 56 -37 67 6 7 12
41 12 76 0 49 -5 69 -25 98 -56 83 -183 102 -255 38 -19 -17 -23 -16 -100 28
-76 44 -80 48 -77 78 2 18 -6 52 -17 77 -49 111 -198 133 -283 41 -21 -22 -27
-23 -63 -15 -22 5 -54 11 -72 15 -18 3 -45 10 -60 16 -15 6 -30 9 -31 7 -2 -2
-15 17 -29 42 -52 93 -127 192 -209 278 -34 36 -41 49 -39 79 3 49 -10 85 -44
117 -38 37 -95 44 -137 18z m251 -726 c93 -8 171 -20 280 -41 102 -20 273 -80
390 -136 200 -95 413 -276 525 -443 91 -137 176 -347 195 -481 2 -22 9 -68 13
-103 9 -67 8 -279 -2 -352 -35 -255 -108 -467 -245 -715 -87 -158 -284 -389
-434 -511 -71 -57 -183 -131 -252 -166 l-60 -31 -590 0 -590 0 -44 22 c-120
62 -284 184 -398 298 -296 295 -497 700 -550 1109 -13 106 -7 352 11 448 79
412 324 728 711 920 157 77 366 144 510 161 28 4 57 8 65 10 8 3 53 7 100 11
47 3 86 7 87 7 4 4 214 -1 278 -7z m-1811 -639 c-25 -45 -48 -90 -51 -99 -4
-13 -14 -17 -37 -14 -37 4 -91 -16 -125 -47 -71 -66 -67 -187 9 -250 l33 -28
-12 -74 c-7 -41 -15 -96 -18 -122 -8 -74 -11 -107 -12 -120 -1 -7 -9 -13 -18
-13 -28 0 -81 -42 -103 -83 -52 -91 -10 -199 93 -242 26 -11 37 -22 38 -38 0
-12 2 -29 3 -37 2 -8 6 -37 10 -65 8 -60 14 -102 21 -133 4 -15 -2 -30 -20
-48 -51 -51 -68 -124 -42 -185 21 -50 73 -97 117 -104 42 -7 39 -2 106 -164
l47 -114 -19 -35 c-33 -62 -18 -158 33 -204 26 -23 86 -48 120 -49 23 0 36
-12 71 -61 24 -33 41 -62 39 -64 -3 -3 -15 -7 -28 -9 -63 -10 -102 -16 -204
-30 -60 -9 -126 -18 -145 -21 -19 -3 -57 -7 -85 -10 -27 -3 -52 -7 -54 -9 -7
-8 -151 49 -256 101 -156 78 -315 194 -442 324 -274 280 -434 646 -434 991 0
91 3 111 22 143 15 26 23 56 24 94 2 70 10 100 47 177 50 105 108 182 152 202
41 18 96 83 96 114 0 9 15 29 33 43 17 15 38 31 45 37 64 52 234 147 342 189
173 69 438 128 607 137 l43 2 -46 -82z m3318 69 c227 -20 455 -82 654 -176
158 -74 324 -192 324 -229 0 -25 78 -111 100 -111 23 0 68 -57 119 -151 54
-100 71 -152 75 -224 1 -39 9 -71 22 -90 16 -24 19 -49 21 -145 3 -199 -35
-364 -132 -565 -156 -326 -417 -588 -753 -755 -143 -71 -228 -98 -277 -89 -22
4 -67 10 -100 14 -33 4 -69 9 -80 11 -11 3 -42 7 -70 10 -27 3 -92 11 -142 17
l-93 12 45 65 c31 46 51 65 67 65 76 4 132 39 159 99 24 53 24 102 -1 151
l-20 39 46 111 c54 129 70 160 81 161 116 8 191 135 141 241 -11 24 -31 51
-43 59 -20 13 -22 19 -14 54 5 22 11 55 14 73 3 17 9 55 14 83 4 28 6 59 5 68
-2 12 11 23 42 36 78 34 118 100 110 182 -6 59 -36 100 -93 128 -49 24 -52 27
-53 65 -1 22 -3 49 -5 60 -3 11 -7 38 -10 60 -9 69 -16 107 -25 131 -7 18 -3
28 25 53 48 43 63 78 61 137 -3 91 -85 170 -168 162 -31 -3 -35 0 -64 57 -17
33 -40 76 -52 97 -18 32 -20 54 -3 44 3 -2 36 -6 73 -10z"/>
<path d="M930 1250 l-85 -5 1 -185 c1 -102 2 -191 3 -197 1 -10 510 -13 2510
-13 l2510 0 1 200 1 200 -228 0 c-2827 4 -4646 4 -4713 0z"/>
</g>
</svg>
