<svg width="30px" height="30px" viewBox="0 0 30 30" version="1.1" xmlns="http://www.w3.org/2000/svg" xmlns:xlink="http://www.w3.org/1999/xlink">
    <polygon id="Path" fill="#FFFFFF" points="7 6 23 6 23 25 7 25"></polygon>
    <path d="M14.9996511,8.44177778 C17.1356895,8.44177778 17.3890273,8.44977778 18.232598,8.488 C19.0121676,8.52355556 19.4361752,8.65422222 19.7170691,8.76355556 C20.0912981,8.90844444 20.3570806,9.08177778 20.6379745,9.36177778 C20.9179796,9.64177778 21.091316,9.90844444 21.2362075,10.2817778 C21.3455428,10.5635556 21.4762118,10.9875556 21.511768,11.7671111 C21.5499909,12.6115556 21.5579911,12.864 21.5579911,15 C21.5579911,17.136 21.5499909,17.3893333 21.511768,18.2328889 C21.4762118,19.0124444 21.3455428,19.4364444 21.2362075,19.7182222 C21.091316,20.0915556 20.9179796,20.3582222 20.6379745,20.6382222 C20.3579695,20.9182222 20.0912981,21.0915556 19.717958,21.2364444 C19.4361752,21.3457778 19.0121676,21.4764444 18.232598,21.512 C17.3881384,21.5502222 17.1356895,21.5582222 14.9996511,21.5582222 C12.8636128,21.5582222 12.6102749,21.5502222 11.7667042,21.512 C10.9871347,21.4764444 10.563127,21.3457778 10.2813442,21.2364444 C9.93381965,21.108294 9.61944068,20.9038754 9.36132769,20.6382222 C9.09566976,20.3801139 8.8912475,20.0657405 8.76309473,19.7182222 C8.65375944,19.4364444 8.52309043,19.0124444 8.48753423,18.2328889 C8.44931132,17.3884444 8.44131118,17.136 8.44131118,15 C8.44131118,12.864 8.44931132,12.6106667 8.48753423,11.7671111 C8.52309043,10.9875556 8.65375944,10.5635556 8.76309473,10.2826667 C8.90798622,9.90844444 9.08132267,9.64266667 9.36132769,9.36177778 C9.64133272,9.08177778 9.90800417,8.90844444 10.2813442,8.76355556 C10.563127,8.65422222 10.9871347,8.52355556 11.7667042,8.488 C12.6111638,8.44977778 12.8636128,8.44177778 14.9996511,8.44177778 M15.8761113,7 C16.7632383,7.00177778 17.2094686,7.00711111 17.6032534,7.01955556 L17.7694786,7.02488889 L18.298377,7.04711111 C19.1499478,7.08622222 19.7312916,7.22133333 20.2397452,7.41955556 C20.7659768,7.624 21.2122071,7.89688889 21.6566595,8.34222222 C22.1011119,8.78666667 22.3748946,9.23288889 22.5793427,9.75911111 C22.7775685,10.2675556 22.912682,10.8488889 22.9517938,11.7004444 L22.9740165,12.2293333 L22.9793499,12.3955556 C22.9917946,12.7893333 22.997128,13.2355556 22.9989058,14.1226667 L22.9989058,14.7564444 L22.9997947,14.9991111 L22.9997947,15.8764444 C23.0013043,16.4519203 22.9944886,17.0273879 22.9793499,17.6026667 L22.9740165,17.7688889 L22.9517938,18.2977778 C22.912682,19.1493333 22.7775685,19.7306667 22.5793427,20.2391111 C22.3784655,20.7728772 22.0635872,21.2564099 21.6566595,21.656 C21.2122071,22.1004444 20.7659768,22.3751111 20.2397452,22.5795556 C19.7312916,22.7768889 19.1499478,22.912 18.298377,22.9511111 L17.7694786,22.9733333 L17.6032534,22.9786667 C17.2094686,22.9911111 16.7632383,22.9964444 15.8761113,22.9982222 L15.2423221,23 L14.122302,23 C13.2360639,22.9973333 12.7889448,22.992 12.3960488,22.9795556 L12.2298236,22.9742222 C12.0534917,22.967608 11.8771905,22.9602005 11.7009252,22.952 C10.8493544,22.9128889 10.2680106,22.7777778 9.75955706,22.5804444 C9.22570032,22.3793105 8.74215234,22.0641302 8.34264274,21.6568889 C7.89819032,21.2124444 7.62351872,20.7662222 7.41907061,20.24 C7.22173373,19.7315556 7.0866202,19.1502222 7.04750839,18.2986667 L7.02528576,17.7697778 L7.01906343,17.6035556 C7.00452234,17.0282682 6.99829936,16.4528006 7.00039643,15.8773333 L7.00039643,14.1235556 C7.00217424,13.2364444 7.00750767,12.7902222 7.01906343,12.3964444 L7.02528576,12.2302222 L7.04750839,11.7013333 C7.0866202,10.8497778 7.22173373,10.2684444 7.41907061,9.76 C7.62009375,9.22583485 7.93528628,8.74198206 8.34264274,8.34222222 C8.78709516,7.89777778 9.2333254,7.624 9.75955706,7.41955556 C10.2680106,7.22222222 10.8493544,7.08711111 11.7009252,7.048 L12.2298236,7.02666667 L12.3960488,7.02133333 C12.7898337,7.008 13.2360639,7.00266667 14.122302,7 L15.8761113,7 Z M15.0156514,10.904 C12.7451067,10.904 10.9044665,12.7446071 10.9044665,15.0151111 C10.9044665,17.2856151 12.7451067,19.1262222 15.0156514,19.1262222 C17.2861961,19.1262222 19.1268363,17.2856151 19.1268363,15.0151111 C19.1268363,12.7446071 17.2861961,10.904 15.0156514,10.904 L15.0156514,10.904 Z M15.0156514,12.3466667 C16.489419,12.3466667 17.6841437,13.5413699 17.6841437,15.0151111 C17.6841437,16.4888523 16.489419,17.6835556 15.0156514,17.6835556 C13.5418838,17.6835556 12.3471591,16.4888523 12.3471591,15.0151111 C12.3471591,13.54137 13.5418838,12.3466667 15.0156514,12.3466667 L15.0156514,12.3466667 Z M19.2539497,9.76088889 C18.7279197,9.76088889 18.3014882,10.1873128 18.3014882,10.7133333 C18.3014882,11.2393539 18.7279197,11.6657778 19.2539497,11.6657778 C19.7799797,11.6657778 20.2064112,11.2393539 20.2064112,10.7133333 C20.2064112,10.1873128 19.7799797,9.76088889 19.2539497,9.76088889 L19.2539497,9.76088889 Z M0,15 C0,23.284 6.714,30 15,30 C23.285,30 30,23.286 30,15 C30,6.716 23.286,0 15,0 C6.716,0 0,6.714 0,15 Z" id="Shape" fill="#B08E4D"></path>
</svg>