<svg xmlns="http://www.w3.org/2000/svg" viewBox="0 0 30 30">
  <g fill="none" fill-rule="evenodd">
    <path fill="#FFF" d="M6 6h17v19H6z"/>
    <path fill="#B08E4D" d="M22.5 21.563h-3.449v-4.806c0-1.257-.539-2.116-1.725-2.116-.908 0-1.412.58-1.647 1.138-.088.2-.075.479-.075.759v5.025h-3.416s.044-8.512 0-9.286h3.416v1.457c.202-.637 1.294-1.546 3.036-1.546 2.162 0 3.86 1.335 3.86 4.211v5.164ZM9.366 11.25h-.022c-1.119 0-1.844-.826-1.844-1.873 0-1.068.747-1.877 1.887-1.877 1.14 0 1.84.807 1.863 1.874 0 1.048-.723 1.876-1.884 1.876ZM7.5 21.563h3.75v-9.375H7.5v9.375ZM15 0C6.716 0 0 6.716 0 15c0 8.283 6.716 15 15 15 8.286 0 15-6.717 15-15 0-8.284-6.714-15-15-15Z"/>
  </g>
</svg>
