<svg xmlns="http://www.w3.org/2000/svg" viewBox="0 0 30 30">
  <g fill="none" fill-rule="evenodd">
    <circle cx="15" cy="15" r="15" fill="#C9BBCF"/>
    <path fill="#FEFEFE" d="M13.6 22.685h2.939v-2.85h-2.94v2.85Zm2.859-5.366c-.078.251-.122.639-.128 1.164h-2.662c.039-1.11.144-1.878.315-2.303.172-.423.611-.912 1.322-1.465l.72-.56c.237-.18.427-.372.573-.583.262-.362.394-.76.394-1.194 0-.5-.146-.955-.44-1.366-.292-.41-.827-.616-1.602-.616-.763 0-1.303.253-1.623.759-.32.508-.478 1.033-.478 1.578H10c.08-1.873.733-3.202 1.963-3.984.775-.5 1.729-.749 2.86-.749 1.485 0 2.72.355 3.703 1.064.983.71 1.474 1.763 1.474 3.157 0 .854-.212 1.575-.64 2.16-.25.354-.73.808-1.441 1.361l-.7.542c-.38.295-.635.64-.76 1.035Z"/>
  </g>
</svg>
