<svg xmlns="http://www.w3.org/2000/svg" viewBox="0 0 19 18">
  <path d="M9.087 1.622c2.403 0 2.688.009 3.637.052.877.04 1.354.187 1.67.31.421.163.72.358 1.036.673.315.315.51.615.673 1.035.123.317.27.794.31 1.671.043.95.052 1.234.052 3.637s-.009 2.688-.052 3.637c-.04.877-.187 1.354-.31 1.671-.163.42-.358.72-.673 1.035-.315.315-.615.51-1.035.673-.317.123-.794.27-1.671.31-.95.043-1.234.052-3.637.052s-2.688-.009-3.637-.052c-.877-.04-1.354-.187-1.671-.31a2.788 2.788 0 0 1-1.035-.673 2.788 2.788 0 0 1-.673-1.035c-.123-.317-.27-.794-.31-1.671-.043-.95-.052-1.234-.052-3.637s.009-2.688.052-3.637c.04-.877.187-1.354.31-1.67.163-.421.358-.72.673-1.036.315-.315.615-.51 1.035-.673.317-.123.794-.27 1.671-.31.95-.043 1.234-.052 3.637-.052M10.073 0c.998.002 1.5.008 1.943.022l.187.006.595.025c.958.044 1.612.196 2.184.419.592.23 1.094.537 1.594 1.038.5.5.808 1.002 1.038 1.594.223.572.375 1.226.419 2.184l.025.595.006.187c.014.443.02.945.022 1.943v.713l.001.273v.987a67.13 67.13 0 0 1-.023 1.942l-.006.187-.025.595c-.044.958-.196 1.612-.419 2.184a4.412 4.412 0 0 1-1.038 1.594c-.5.5-1.002.809-1.594 1.039-.572.222-1.226.374-2.184.418l-.595.025-.187.006c-.443.014-.945.02-1.943.022L9.36 18H8.1c-.997-.003-1.5-.009-1.942-.023l-.187-.006a66.189 66.189 0 0 1-.595-.025c-.958-.044-1.612-.196-2.184-.418a4.412 4.412 0 0 1-1.594-1.039c-.5-.5-.809-1.002-1.039-1.594-.222-.572-.374-1.226-.418-2.184l-.025-.595-.007-.187a67.17 67.17 0 0 1-.021-1.942V8.014c.002-.998.008-1.5.021-1.943l.007-.187.025-.595c.044-.958.196-1.612.418-2.184A4.412 4.412 0 0 1 1.598 1.51c.5-.5 1.002-.808 1.594-1.038C3.764.25 4.418.098 5.376.054L5.971.03l.187-.006C6.601.009 7.103.003 8.1 0Zm-.968 4.392a4.625 4.625 0 1 0 0 9.25 4.625 4.625 0 0 0 0-9.25Zm0 1.623a3.002 3.002 0 1 1 0 6.004 3.002 3.002 0 0 1 0-6.004Zm4.768-2.909a1.071 1.071 0 1 0 0 2.143 1.071 1.071 0 0 0 0-2.143Z" fill="currentColor" fill-rule="evenodd"/>
</svg>
