<svg xmlns="http://www.w3.org/2000/svg" width="333.49" height="62.4"  viewBox="0 0 333.49 62.4">
  <g fill="currentColor" fill-rule="evenodd">
    <path d="m0 .84 20.4-.1a4.6 4.6 0 0 1 .28 1.12c0 1.81-3.35 1.53-3.35 3.39a4.62 4.62 0 0 0 .28 1.58l17 46 17-45.95A4.59 4.59 0 0 0 52 5.3c0-1.91-3.4-1.58-3.4-3.44a4.67 4.67 0 0 1 .28-1.12h15.24a3.22 3.22 0 0 1 .37 1.12c0 1.72-4.83 2.23-6 5.53l-20 54.13H37c-3.81 0-11.43-1.44-13-5.63L5.9 7C4.65 3.67 0 3.76 0 1.9ZM97.1 62.4c-17.89 0-31.5-12.5-31.5-31.22C65.6 12.31 79 0 97.1 0s31.55 12.31 31.55 31.18S114.94 62.4 97.1 62.4Zm20.21-31.22c0-12.64-6.41-25.42-20.21-25.42S76.8 18.54 76.8 31.18s6.64 25.46 20.3 25.46 20.21-12.92 20.21-25.46ZM186.72 7.06v54.41h-1.16c-5.44 0-11.89-.84-14.82-6l-25.09-45.3.09 44.93c0 3.58 3.63 3.49 3.63 5.26a3.1 3.1 0 0 1-.33 1.11h-13a3.16 3.16 0 0 1-.37-1.11c0-1.77 3.67-1.72 3.67-5.26v-48c0-3.58-3.67-3.48-3.67-5.25A4.45 4.45 0 0 1 136 .7h16.31l28.11 50.59V7.06c0-3.53-3.72-3.48-3.72-5.25a2.34 2.34 0 0 1 .45-1.11H190a2.8 2.8 0 0 1 .37 1.11c-.02 1.77-3.65 1.67-3.65 5.25ZM236.85 6.32h-23.14v20.12h17c6.09 0 4.69-7.62 7.71-7.62a1.93 1.93 0 0 1 1.26.6V39a1.84 1.84 0 0 1-1.26.56c-3.06 0-1.53-7.48-7.71-7.48h-17v23.77h23.14a5.88 5.88 0 0 0 4.28-2.05c.93-1.3 1.3-5.43 3.34-5.43a2 2 0 0 1 1.3.6l-1.11 12.5h-45.54a3.1 3.1 0 0 1-.37-1.11c0-1.77 3.67-1.72 3.67-5.26v-48c0-3.58-3.67-3.48-3.67-5.25a4.46 4.46 0 0 1 .33-1.15h45.58l1.11 12.5a2 2 0 0 1-1.3.6c-2 0-2.41-4.14-3.34-5.44a5.91 5.91 0 0 0-4.28-2.04ZM297.76 61.47a2.61 2.61 0 0 1-.42-1.21c0-2 3.21-.83 3.21-3.44a7.68 7.68 0 0 0-.61-2.69l-2.83-7.76h-27.32l-3.16 8.73a5 5 0 0 0-.42 1.77c0 2.23 3.3 1.53 3.3 3.44a2.63 2.63 0 0 1-.42 1.16H254a3.18 3.18 0 0 1-.38-1.11c0-1.77 4.84-2.23 6-5.53l17.85-48a4.77 4.77 0 0 0 .23-1.34c0-2.42-3.35-1.68-3.35-3.58a2.76 2.76 0 0 1 .41-1.21H292L312.07 55c1.12 3.07 6 3.53 6 5.44a7.15 7.15 0 0 1-.09 1Zm-25.88-20.72H295L283.4 9.43Z"/>
    <circle cx="328.78" cy="56.76" r="4.71"/>
  </g>
</svg>