<svg xmlns="http://www.w3.org/2000/svg" width="110" height="48" viewBox="0 0 110 48">
  <g fill="currentColor" fill-rule="evenodd">
    <path d="M60.058 33h4.89c1.349-2.534 2.717-5.5 4.105-8.897C70.441 20.706 71.757 17.005 73 13h-6.094c-.265.989-.576 2.06-.933 3.213-.357 1.154-.728 2.32-1.112 3.498a135.481 135.481 0 0 1-1.17 3.441c-.398 1.116-.768 2.13-1.112 3.042a60.371 60.371 0 0 1-1.133-3.042 242.784 242.784 0 0 1-2.264-6.94 85.514 85.514 0 0 1-.934-3.212H52c1.243 4.005 2.56 7.706 3.95 11.103 1.388 3.397 2.758 6.363 4.108 8.897M77.602 31.565c.596.766 1.39 1.364 2.384 1.792.993.429 2.247.643 3.762.643 1.192 0 2.198-.104 3.017-.312a15.2 15.2 0 0 0 2.235-.74l-.782-4.52a9.145 9.145 0 0 1-1.732.488c-.634.116-1.248.175-1.844.175-1.242 0-2.068-.364-2.477-1.09-.41-.728-.615-1.702-.615-2.923V17.87h6.668V13.04H81.55V7L76 7.935v17.22c0 1.326.117 2.533.354 3.624.236 1.091.652 2.02 1.248 2.786M93.903 31.326c.687.846 1.619 1.503 2.795 1.972 1.176.468 2.65.702 4.421.702 1.744 0 3.41-.124 4.996-.37 1.585-.248 2.88-.514 3.885-.801V13h-5.908v15.848c-.37.052-.792.097-1.268.136-.476.04-.926.059-1.348.059-1.375 0-2.313-.416-2.815-1.25-.503-.832-.753-2.185-.753-4.059V13H92v11.437c0 1.405.145 2.693.436 3.864.29 1.171.78 2.18 1.467 3.025M26.013 33.866l-3.147-5.45-5.49 3.169-3.24-5.612 5.451-3.147-3.17-5.489 5.55-3.203 3.148 5.45 5.507-3.179 3.242 5.614-5.452 3.147 3.169 5.487-5.568 3.213Zm14.251-.852-3.168-5.487L48 21.233l-3.194-5.53-5.41 3.123L33.01 7.77l-5.507 3.18L21.18 0 15.65 3.193l3.124 5.41-11.058 6.383 3.17 5.49L0 26.758l3.194 5.53 5.41-3.123L14.99 40.22l5.49-3.168L26.798 48l5.532-3.193-3.124-5.41 11.057-6.383Z"/>
  </g>
</svg>
