<svg xmlns="http://www.w3.org/2000/svg" viewBox="0 0 132 90">
  <g fill="none" fill-rule="evenodd">
    <g fill="#B08E4D" class="c-navbar__logo__top-part" fill-rule="nonzero">
      <path d="M59.456 63.126h12.481v1h-12.48zM73.796 58.508v-.215c0-.23-.014-.445-.054-.66a.446.446 0 0 0 .134-.323.422.422 0 0 0-.363-.418 2.884 2.884 0 0 0-.43-.7.395.395 0 0 0 .053-.215.425.425 0 0 0-.43-.431.454.454 0 0 0-.23.067 3.999 3.999 0 0 0-.646-.404c0-.027.013-.054.013-.094a.425.425 0 0 0-.43-.43.442.442 0 0 0-.364.201 7.615 7.615 0 0 0-.592-.148.429.429 0 0 0-.431-.404.432.432 0 0 0-.404.31c-.108 0-.229-.014-.337-.014a4.47 4.47 0 0 0-.242-.255.465.465 0 0 0 .067-.243.43.43 0 0 0-.754-.283 6.132 6.132 0 0 0-.404-.228c0-.027.014-.054.014-.095a.425.425 0 0 0-.431-.43.46.46 0 0 0-.377.215c-.162-.04-.337-.08-.512-.121a3.517 3.517 0 0 0-.686-.902c.013-.027.013-.068.013-.108 0-.202-.135-.364-.31-.364s-.31.162-.31.364c0 .04 0 .067.014.108-.336.31-.579.713-.686.902a3.15 3.15 0 0 0-.512.12.414.414 0 0 0-.377-.215.425.425 0 0 0-.417.526 2.878 2.878 0 0 0-.404.228.41.41 0 0 0-.323-.148.425.425 0 0 0-.431.431c0 .094.027.175.067.243-.08.08-.175.175-.242.255-.108 0-.23 0-.337.014a.432.432 0 0 0-.404-.31.429.429 0 0 0-.43.404c-.203.04-.405.094-.593.148a.442.442 0 0 0-.364-.202.425.425 0 0 0-.43.431c0 .027 0 .054.013.094a5.224 5.224 0 0 0-.646.404.417.417 0 0 0-.23-.067.425.425 0 0 0-.43.43c0 .081.027.149.054.216-.175.216-.31.444-.431.7a.422.422 0 0 0-.364.418.47.47 0 0 0 .135.323c-.04.215-.054.43-.054.66v.215a.421.421 0 0 0-.175.337c0 .188.121.336.27.403.08.337.201.674.35.997a.454.454 0 0 0-.068.229c0 .242.189.43.431.43h.014c.282.431.632.808 1.036 1.131v.687H71.87v-.687a5.156 5.156 0 0 0 1.037-1.13h.014c.242 0 .43-.189.43-.431a.454.454 0 0 0-.067-.23c.148-.322.27-.659.35-.996a.427.427 0 0 0 .27-.403c.067-.135 0-.27-.108-.337Zm-12.764 2.895c-1.616-.498-2.787-2.033-2.787-3.5 0-.109 0-.216.013-.31a.435.435 0 0 0 .108-.283c0-.04-.013-.095-.013-.135.08-.296.228-.552.417-.794a.43.43 0 0 0 .337-.364c.632-.565 1.575-.902 2.652-.97-.094.162-.189.324-.27.499-.026 0-.053-.014-.08-.014a.425.425 0 0 0-.189.808 5.085 5.085 0 0 0-.107.808.432.432 0 0 0-.364.417c0 .216.162.404.377.431.027.243.054.485.108.714a.442.442 0 0 0-.202.363c0 .243.188.431.43.431.082.23.176.458.283.673a.435.435 0 0 0-.107.283c0 .243.188.431.43.431h.068c.067.108.148.215.229.323-.458.081-.902.135-1.333.189Zm6.099-.31a33.95 33.95 0 0 0-2.868 0c-1.48-.7-2.531-2.41-2.531-4.053 0-2.154 1.777-3.393 3.958-3.393 2.195 0 3.959 1.24 3.959 3.393.013 1.643-1.037 3.353-2.518 4.053Zm3.245.31c-.431-.068-.875-.122-1.32-.175.081-.108.148-.216.23-.323h.067c.242 0 .43-.189.43-.431a.435.435 0 0 0-.107-.283c.107-.216.202-.444.282-.673.243 0 .431-.189.431-.431a.408.408 0 0 0-.202-.364c.054-.242.095-.47.108-.713a.425.425 0 0 0 .377-.431.41.41 0 0 0-.363-.417 3.894 3.894 0 0 0-.122-.808.438.438 0 0 0 .243-.377.425.425 0 0 0-.431-.431c-.027 0-.054 0-.08.013a5.861 5.861 0 0 0-.27-.498c1.077.067 2.02.404 2.652.97a.446.446 0 0 0 .337.363c.188.242.323.498.417.794-.013.04-.013.081-.013.135 0 .108.04.202.107.283.014.108.014.202.014.31 0 1.467-1.172 2.989-2.787 3.487Z"></path>
      <path d="M67.79 56.906c-.08-.027-.215.027-.336.215-.121.175-.054 0-.054 0 .095-.687-.363-1.373-.457-1.467-.095-.095-.377-.256-.377-.256l-.081-.162c-.014-.296-.31-.727-.31-.727s-.108.027-.054.148.162.66.162.66c-.135-.013-.162.067-.121.108.04.04.282.35.282.35-.242-.296-2.248-1.508-2.248-1.508-.08.175.067.458.067.458-.054.161.162.296.162.296-.04.188.27.336.229.323-.04-.014-.122-.04-.175.135-.04.188.08.269.08.269s-.08.027-.067.134c.014.108.364.27.364.27s-.189-.027-.162.12c.027.136.471.27.471.27l-.134.081s-.216.04-.095.215c.122.162.324.149.324.149-.135.08-.162.161-.162.161.067.08.188.054.188.054-.067.094-.067.215-.067.323.014.108.121.135.162.202.04.067.067.027.12.121.041.094.082.068.136.121.053.054.188.014.228.04.027.041.149.082.149.082-.23.134-.431.47-.418.552.014.08-.094.175-.094.175-1.28 1.104-1.225 1.144-1.198 1.225.027.08.188-.014.188-.014s-.121.081.014.135c.12.054.632-.485.632-.485-.282.39-.35.539-.296.593.054.04.175-.068.175-.068s-.027.122.068.108c.094-.013.727-.875.727-.875-.04.135-.364.633-.377.7-.014.067.08.148.202.027.12-.121.417-.956.417-.956-.175.996-.027 1.023.067 1.037.094.013.216-.673.216-.97-.014-.296.054-.444.054-.444h.026a.403.403 0 0 1 .095.121.583.583 0 0 1-.014.068c-.013 0-.013.094 0 .107.027.014.04-.054.04-.054-.013.095.014.095.028.108.013.014.013-.121.013-.121s0 .08.013.121c0 .04.04.04.054.027.014 0 0-.108.014-.135 0-.013 0-.067-.027-.107-.027-.027-.08-.108-.108-.135 0 0-.013-.013-.013-.027.027-.013.067-.013.107-.027.068.068.135.162.148.175a.191.191 0 0 1-.026.081c-.014.013-.014.108 0 .135.026.027.04-.068.04-.068-.014.108.013.108.04.122.027.013.014-.149.014-.149s.013.095.013.149c0 .053.054.04.068.04.013-.014 0-.135.013-.148 0-.027 0-.081-.027-.121a1.682 1.682 0 0 0-.121-.162c-.014-.013-.027-.04-.054-.067.054-.014.121-.04.202-.068.74-.242.848-.902.875-.969.027-.067-.027-.202.014-.202.067.014.161-.067.161-.067l.256.013-.162-.215c-.026-.256-.215-.337-.282-.35Z"></path>
    </g>
    <g fill="currentColor" class="c-navbar__logo__top-part" fill-rule="nonzero">
      <path d="m8.146 70.881 1.225.202v5.305c0 .256-.014.525-.027.794-.014.27-.067.539-.162.795-.08.256-.215.498-.404.7-.188.215-.444.377-.754.498-.323.121-.727.189-1.225.189-.484 0-.888-.054-1.198-.176-.31-.12-.552-.269-.74-.47a1.825 1.825 0 0 1-.391-.66 2.873 2.873 0 0 1-.148-.768 14.623 14.623 0 0 1-.027-.754v-5.453l1.239-.283v-.619l-3.636.014v.673l1.226.215v5.453c0 .229.013.498.04.808.027.31.094.646.202.983.108.336.283.66.539.956.255.296.619.538 1.09.727.471.175 1.064.27 1.79.27.647 0 1.2-.082 1.63-.23.444-.148.808-.363 1.077-.633.27-.269.485-.565.646-.902.148-.336.256-.686.31-1.05a7.57 7.57 0 0 0 .08-1.09V71.07l1.24-.27v-.592H8.131v.673h.014ZM13.504 70.881l1.225.229v8.307l-1.225.256v.62h3.635v-.62l-1.239-.256v-8.334l1.24-.269v-.606h-3.636zM18.607 72.659h.713l.256-1.576h2.25v8.334l-1.429.256v.62h4.013v-.62l-1.428-.256v-8.334h2.25l.241 1.576h.714v-2.451h-7.58zM36.877 70.814v-.606H33.31v.673l1.347.216-2.639 7.755-2.464-7.782 1.333-.256v-.606h-3.77v.673l1.131.216 3.056 9.196h1.225l3.205-9.237zM42.129 70.208H40.93l-3.406 9.223-1.09.242v.62h3.513v-.62l-1.333-.256.714-2.087h4.066l.646 2.074-1.319.256v.62h3.716v-.62l-1.09-.243-3.218-9.209Zm-.687 1.077 1.67 5.197h-3.528l1.858-5.197ZM53.007 70.208H51.81l-3.406 9.223-1.09.242v.62h3.513v-.62l-1.333-.242.7-1.952h4.067l.646 1.938-1.32.256v.62h3.716v-.62l-1.09-.242-3.205-9.223Zm-.686 1.09 1.67 5.332h-3.528L52.32 71.3ZM64.721 77.034a4.76 4.76 0 0 0-.471-.794 1.792 1.792 0 0 0-.593-.512 2.963 2.963 0 0 0-.457-.175c.78-.134 1.373-.417 1.79-.835.485-.498.74-1.13.74-1.911 0-.849-.282-1.495-.82-1.94-.553-.444-1.36-.672-2.437-.672h-1.67l-2.437.013v.673l1.225.23.027 8.347-1.225.256v.579h3.864v-.58l-1.467-.269-.027-3.662.767-.013c.444 0 .794.054 1.037.148.242.094.444.256.62.471.16.229.336.539.524.956l1.347 2.975h1.75V79.7l-.916-.256-1.171-2.41Zm-2.827-2.1h-1.145V71.07h1.575c.727 0 1.28.148 1.656.458.377.31.552.754.552 1.346 0 .673-.228 1.185-.686 1.535-.458.35-1.104.525-1.952.525ZM67.763 72.632h.714l.242-1.562h2.25v8.347l-1.428.256v.62h4.012v-.62l-1.427-.256V71.07h2.248l.256 1.562h.714v-2.437h-7.58zM81.86 74.974l2.41-3.891 1.185-.269v-.606h-3.46v.673l1.144.175-2.154 3.568h-1.764v-3.541l1.212-.269v-.606h-3.608v.673l1.225.202v8.348l-1.225.242v.62h3.608v-.62l-1.212-.269v-3.918h1.737l2.612 3.945-1.09.242v.62h3.554v-.62l-1.118-.229zM87.151 70.881l1.24.229v8.307l-1.24.256v.62h3.65v-.62l-1.24-.256v-8.334l1.24-.269v-.606h-3.65zM98.488 75.351a4.956 4.956 0 0 0-1.036-.511c-.377-.135-.768-.27-1.145-.377a7.396 7.396 0 0 1-1.05-.39 2.113 2.113 0 0 1-.767-.566c-.189-.23-.283-.525-.283-.889 0-.404.108-.727.323-.97.215-.242.498-.417.848-.524.35-.108.727-.162 1.118-.162a4.615 4.615 0 0 1 1.764.323l.202 1.602h.713l.108-2.235a7.398 7.398 0 0 0-2.827-.592c-.633 0-1.212.094-1.737.296-.526.202-.93.498-1.226.902-.296.404-.444.916-.444 1.522 0 .498.094.902.296 1.225.189.323.445.579.768.78.31.203.66.364 1.036.499.377.135.768.256 1.145.363a5.54 5.54 0 0 1 1.037.404c.31.148.565.35.767.58.188.228.296.538.296.915 0 .404-.108.754-.336 1.023-.23.27-.525.471-.902.62-.377.134-.781.201-1.226.201-.336 0-.7-.04-1.05-.107a5.338 5.338 0 0 1-.929-.296l-.215-1.63h-.7l-.081 2.343c.471.202.956.35 1.454.444.498.095.983.149 1.454.149.66 0 1.28-.108 1.845-.31a2.906 2.906 0 0 0 1.346-.956c.337-.43.512-.97.512-1.643 0-.498-.095-.902-.297-1.238a2.585 2.585 0 0 0-.78-.795ZM101.14 72.632h.727l.243-1.562h2.248v8.347l-1.427.256v.62h4.012v-.62l-1.427-.256V71.07h2.25l.241 1.562h.714v-2.437h-7.58zM116.476 79.417h-3.864v-3.931h3.595v-.848h-3.595V71.07h3.702l.216 1.387h.713v-2.262h-4.645l-2.383.013v.673l1.225.229v8.307l-1.225.256v.62h7.203V77.95h-.713zM129.886 70.195l-3.474.013v.673l1.24.216v7.526l-5.239-8.428-2.625.013v.673l1.225.216v8.32l-1.225.256v.62h3.46v-.62l-1.225-.256v-7.701l5.305 8.577h1.306v-9.196l1.252-.283z"></path>
    </g>
    <g fill="#B08E4D" fill-rule="nonzero" class="c-navbar__logo__top-part">
      <path d="M39.005 85.732c0 .188.054.337.161.458.108.12.243.215.418.296.175.08.363.148.579.215.202.068.417.135.62.216.201.08.403.175.578.296.175.121.31.27.417.444.108.189.162.418.162.7 0 .377-.094.687-.283.93a1.691 1.691 0 0 1-.767.538 2.966 2.966 0 0 1-1.05.175c-.27 0-.539-.027-.822-.08a4.878 4.878 0 0 1-.834-.243v-1.36h.525l.148.983-.081-.148c.175.08.364.134.552.188.189.04.377.068.566.068.228 0 .43-.04.632-.108.189-.067.35-.175.458-.31a.74.74 0 0 0 .175-.511.668.668 0 0 0-.161-.472 1.225 1.225 0 0 0-.418-.296 5.507 5.507 0 0 0-.565-.215c-.202-.068-.418-.135-.62-.202a2.31 2.31 0 0 1-.579-.283 1.206 1.206 0 0 1-.417-.444 1.33 1.33 0 0 1-.162-.687c0-.35.081-.646.256-.875.175-.229.404-.404.7-.512.297-.107.62-.175.983-.175.256 0 .525.027.808.081.283.054.552.135.821.256l-.067 1.292h-.525l-.135-.915.108.108a2.551 2.551 0 0 0-.485-.149 2.319 2.319 0 0 0-.525-.053c-.202 0-.404.027-.579.08a.944.944 0 0 0-.43.27c-.108.08-.162.242-.162.444ZM46.33 84.79l-.741.188.094-.122v4.592l-.094-.135.74.175v.417h-2.1v-.417l.74-.16-.08.12v-4.592l.108.135-.754-.16v-.459h2.087zM52.24 84.372h1.98v.417l-.781.202.12-.175v5.09h-.901L49.83 85.22h.12v4.255l-.133-.175.78.188v.417H48.62v-.417l.78-.188-.134.175v-4.659l.094.162-.74-.148v-.458h1.615l2.774 4.591-.121.013v-4.16l.134.162-.781-.148v-.458zM58.81 84.372c.364 0 .7.054.997.162.31.107.565.269.78.498.216.215.391.498.512.835.121.336.189.727.189 1.184 0 .62-.108 1.145-.337 1.576-.229.43-.538.74-.929.956-.39.215-.848.323-1.36.323H56.4v-.418l.768-.188-.121.175v-4.659l.12.175-.78-.161v-.458h2.423Zm-.107 4.941c.215 0 .43-.04.632-.107.202-.068.39-.189.552-.35a1.71 1.71 0 0 0 .39-.674c.095-.282.149-.646.149-1.077 0-.417-.04-.767-.135-1.05-.094-.283-.215-.498-.377-.66a1.397 1.397 0 0 0-.525-.336 1.786 1.786 0 0 0-.606-.094H57.72l.134-.135v4.618l-.134-.135h.983ZM64.586 85.732c0 .188.054.337.162.458.108.12.242.215.417.296.175.08.364.148.58.215.201.068.417.135.619.216.202.08.404.175.579.296.175.121.31.27.417.444.108.189.161.418.161.7 0 .377-.094.687-.282.93a1.691 1.691 0 0 1-.768.538 2.966 2.966 0 0 1-1.05.175c-.27 0-.538-.027-.821-.08a4.878 4.878 0 0 1-.835-.243l.054-1.36h.471l.148.983-.08-.148c.174.08.363.134.551.188.189.04.377.068.566.068.229 0 .43-.04.633-.108.188-.067.35-.175.458-.31a.74.74 0 0 0 .175-.511.667.667 0 0 0-.162-.472 1.225 1.225 0 0 0-.417-.296 5.507 5.507 0 0 0-.566-.215c-.202-.068-.417-.135-.62-.202a2.31 2.31 0 0 1-.578-.283 1.206 1.206 0 0 1-.418-.444 1.33 1.33 0 0 1-.161-.687c0-.35.08-.646.256-.875.175-.229.404-.404.7-.512.296-.107.62-.175.983-.175.256 0 .525.027.808.081.282.054.552.135.82.256l-.066 1.292h-.526l-.134-.915.108.108a2.551 2.551 0 0 0-.485-.149 2.319 2.319 0 0 0-.525-.053c-.202 0-.404.027-.58.08a.944.944 0 0 0-.43.27c-.108.08-.162.242-.162.444ZM74.98 89.502l-.161-.216 1.05.19v.43h-2.773v-.43l1.252-.176-.162.202v-4.457l.216.013-1.346.781-.256-.498 1.548-.983h.66v5.144zM81.026 86.634l.027.566a3.436 3.436 0 0 1-.768.39c-.269.094-.538.135-.821.135a1.96 1.96 0 0 1-.848-.189 1.316 1.316 0 0 1-.58-.538c-.147-.243-.215-.526-.215-.876 0-.39.081-.713.256-.982.162-.27.39-.472.687-.62.296-.148.62-.215.996-.215.39 0 .74.08 1.037.256.31.175.538.444.713.807.176.364.256.835.256 1.414 0 .646-.107 1.212-.323 1.697a2.607 2.607 0 0 1-.915 1.117c-.39.256-.862.39-1.414.39a3.52 3.52 0 0 1-.889-.12l.068-.58c.134.027.269.04.39.054.121.014.242.014.35.014.444 0 .808-.108 1.09-.31.283-.202.499-.498.633-.889.135-.39.202-.848.202-1.386 0-.633-.094-1.09-.296-1.4-.202-.31-.498-.458-.875-.458-.337 0-.592.094-.794.296-.202.202-.296.485-.296.835 0 .242.04.444.134.605a.86.86 0 0 0 .377.35c.162.081.337.122.539.122.215 0 .444-.04.673-.135.188-.067.404-.188.606-.35ZM84.069 89.906v-.687c.619-.538 1.13-1.01 1.535-1.414.403-.404.7-.754.902-1.077.202-.323.296-.62.296-.915 0-.31-.108-.552-.31-.7-.202-.148-.471-.216-.78-.216-.149 0-.297.014-.472.054s-.35.08-.539.135l.108-.148-.121.942h-.485l-.08-1.292c.31-.095.619-.176.915-.216.296-.054.566-.08.821-.08.35 0 .66.053.943.147.27.095.484.256.646.458.162.216.242.485.242.821a2.2 2.2 0 0 1-.31 1.091c-.201.364-.497.74-.888 1.158a38.1 38.1 0 0 1-1.44 1.4l-.014-.108h2.774v.647h-3.743ZM91.649 89.973c-.539 0-1.09-.135-1.656-.39l.229-.58c.215.108.444.203.673.256.229.054.43.081.633.081.242 0 .457-.04.646-.134.188-.095.323-.23.43-.39.108-.176.149-.378.149-.607 0-.269-.067-.47-.216-.619-.148-.148-.35-.256-.632-.31a5.608 5.608 0 0 0-1.05-.094h-.526l.108-2.8h2.935l-.013.632h-2.37l.242-.148-.08 1.885-.216-.175h.471c.526 0 .943.067 1.266.189.323.12.566.31.714.552.148.242.229.525.229.875 0 .377-.081.7-.256.983-.175.269-.404.47-.7.619a2.936 2.936 0 0 1-1.01.175Z"></path>
    </g>
    <path fill="#B08E4D" class="c-navbar__logo__top-part" d="M58.447 62.763.027 63.826v.437h58.541l-.121-1.5Zm14.38 1.5h58.877v-.437l-58.757-1.063-.12 1.5ZM33.27 88.053 0 86.991v-.438h33.27v1.5Zm98.434-1.041-33.27 1.041v-1.479h33.27v.438Z"></path>
    <path fill="currentColor" fill-rule="nonzero" d="M101.787 15.666c.794-2.733 1.198-5.345 1.198-7.863 0-.539-.08-1.09-.255-1.656a6.456 6.456 0 0 0-.754-1.602 7.157 7.157 0 0 0-1.118-1.333c-.417-.39-1.077.027-.915.565.107.377.215.768.31 1.158.215.902.336 1.804.35 2.72a21.647 21.647 0 0 1-.378 4.753 30.829 30.829 0 0 1-1.32 4.712 41.702 41.702 0 0 1-2.046 4.672 96.323 96.323 0 0 1-2.53 4.605 44.87 44.87 0 0 1-2.25 3.42 59.138 59.138 0 0 1-2.679 3.446 66.334 66.334 0 0 1-2.84 3.191 46.078 46.078 0 0 1-2.76 2.693c-.89.78-1.697 1.414-2.424 1.898-.727.485-1.333.74-1.804.808-.566.067-.902-.256-1.01-.956-.108-.7-.067-1.616.108-2.76.175-1.144.457-2.41.834-3.81.377-1.4.768-2.76 1.145-4.093.39-1.32.713-2.531.996-3.609.283-1.077.417-1.871.431-2.383.027-.66-.189-1.185-.66-1.562a4.737 4.737 0 0 0-.861-.565c-.31-.162-.7 0-.795.337a46.562 46.562 0 0 1-3.54 8.441c-1.509 2.76-3.044 5.157-4.592 7.19-1.562 2.033-3.03 3.622-4.403 4.78-1.373 1.158-2.396 1.75-3.07 1.79-.74.041-1.225-.31-1.467-1.05s-.283-1.75-.135-3.029c.148-1.28.445-2.774.902-4.47a70.75 70.75 0 0 1 1.656-5.412 138.53 138.53 0 0 1 2.168-5.844c.781-1.992 1.575-3.904 2.37-5.735a111.493 111.493 0 0 1 2.356-5.117 76.285 76.285 0 0 1 1.589-3.07c.175-.323.336-.619.511-.902.122-.228.108-.457-.04-.7a2.81 2.81 0 0 0-.646-.7 4.826 4.826 0 0 0-.97-.565 3.583 3.583 0 0 0-.525-.189.53.53 0 0 0-.633.256 128.209 128.209 0 0 0-2.329 4.174 96.524 96.524 0 0 0-2.598 5.278 139.876 139.876 0 0 0-2.45 5.708 62.383 62.383 0 0 0-2.06 5.884 58.052 58.052 0 0 0-1.415 5.776c-.35 1.885-.538 3.69-.538 5.426-.027.781.054 1.535.215 2.249a7.53 7.53 0 0 0 .727 1.898c.31.552.714.983 1.212 1.306.485.323 1.064.458 1.737.43.875-.04 1.939-.551 3.204-1.507 1.266-.956 2.545-2.154 3.851-3.568a41.021 41.021 0 0 0 3.676-4.645c.148-.229.31-.444.444-.673 3.056-5.292 1.723-2.532 1.023.39-.013.04 0 0-.107.512-.216 1.09-.135 1.683-.095 2.316.027.444.095.915.23 1.454.134.525.309 1.023.565 1.494.242.471.565.862.97 1.171.403.31.901.445 1.507.418 1.239-.094 2.706-.7 4.403-1.79 1.696-1.091 3.433-2.546 5.21-4.35 1.778-1.804 3.528-3.89 5.251-6.26a59.082 59.082 0 0 0 4.632-7.473c1.36-2.68 2.437-5.345 3.231-8.078ZM101.828 22.856c-.458.094-.876.269-1.24.525-.336.215-.551.498-.619.875-.08.377-.013.7.202.97.27.309.647.47 1.118.497.471.027.875-.107 1.198-.39.202-.202.337-.39.404-.58.027-.053.094-.188.175-.416.323-.808-.39-1.657-1.238-1.481ZM109.812 24.121c.282.094.632.027 1.063-.202.108-.04.243-.27.404-.7.067-.229.31-.875.727-1.939.162-.43-.27-.861-.686-.66-.983.445-1.616 1.266-1.912 2.478-.162.565-.027.902.404 1.023ZM30.711 32.644c-.579.027-1.023.202-1.36.538-.202.202-.484.485-.834.889.336-4.376-3.878-1.872-3.878-1.872h.013c-.767.418-1.413.89-1.911 1.414a19.086 19.086 0 0 0-2.99 4.012s-4.214 7.338-.538 7.513h.094c.108.014.216.014.337.014.848-.054 1.629-.377 2.356-.97 1.104-.888 1.98-1.656 2.612-2.302.323-.364.66-.754 1.01-1.185.35-.43.727-.888 1.144-1.387.418-.484.74-.888.983-1.198.027-.027.39-.417 1.09-1.171.068.525.122.808.122.835 0 .107 0 .215-.014.336 0 0-.457 3.918.122 6.651v.014c.107.525.255 1.01.457 1.413.189.377.404.66.674.876.188.148.403.242.646.282.08-.175.175-.444.215-.78a2.89 2.89 0 0 0-.094-1.24c-.148-.619-.094-1.696.027-3.863.067-1.01.135-1.805.215-2.397a59.45 59.45 0 0 0 .216-1.79c.188-1.657.31-2.882.35-3.69.027-.66-.323-.956-1.064-.942Zm-6.96 8.024c-1.32 1.481-2.545 2.518-3.663 3.137-1.265-.229 1.468-5.049 1.899-5.79a.186.186 0 0 1 .04-.053c0-.013.013-.027.027-.04 1.198-2.128 2.504-3.69 3.931-4.659.283.31.404.821.404 1.522 0 .7.135 1.198.445 1.48-.741 1.468-1.764 2.936-3.084 4.403Z"></path>
    <path fill="currentColor" fill-rule="nonzero" d="M127.005 27.864c-4.133 1.32-7.446 5.386-9.452 8.402-.04-.175-.054-.283-.067-.297.283-2.517.485-4.322.646-5.44.054-.618.39-1.238.997-1.857 3.083-3.137 5.399-5.736 7.863-9.923 2.14-3.568 3.621-7.446 4.443-11.62.323-1.642.363-3.123.107-4.429-.242-1.185-.78-1.993-1.642-2.41-.848-.417-1.818-.39-2.895.121-.74.35-1.454.943-2.154 1.804-1.333 1.683-2.383 3.393-3.15 5.117-.916 2.154-1.684 4.106-2.29 5.856-1.44 4.282-2.571 10.758-3.514 17.625-.013.12-.027.255-.054.417-.053.027-.12.067-.175.094-.74.445-1.534 1.077-2.396 1.885a25.94 25.94 0 0 1-1.522 1.333c-.188.148-.457.014-.47-.215-.028-.768-.014-1.858.053-3.245.08-1.656.013-2.935-.202-3.837a.292.292 0 0 0-.215-.216c-.633-.148-1.037.162-1.212.916-.175.687-.31 1.346-.404 1.993-1.777 2.585-3.905 4.752-6.409 6.516-.74.512-1.4.862-2.006 1.05-1.858.714-1.077-2.1-.942-2.571.013-.04.013-.068.013-.068l1.09-4.577c0-.014.014-.027.014-.054.027-.068.08-.243.162-.485.08-.283.134-.512.148-.66v-.188a.4.4 0 0 0-.31-.364c-.565-.12-.983-.134-1.252-.054-.31.095-.579.39-.808.903-1.064 2.086-1.75 4.146-2.06 6.18-.04.201-.067.43-.108.673v.04c-.067 1.872.916 2.76 2.962 2.68 1.374-.041 2.64-.485 3.81-1.334 2.263-1.575 4.067-3.325 5.427-5.25-.121 1.305-.202 2.234-.216 2.8-.067 1.885-.727 3.528-1.979 4.941-2.84 3.218-4.928 5.669-6.718 8.967v-.013s-4.874 8.334-3.716 14.056v.014c.026.12.04.242.067.35l.013-.014c.162.633.404 1.145.714 1.508h-.014a.186.186 0 0 0 .054.04c.337.364.74.593 1.252.687 3.245.996 5.978-4.228 5.978-4.228h-.013a35.907 35.907 0 0 0 3.999-8.9 63.246 63.246 0 0 0 2.194-11.605c.162-1.697.727-3.07 1.71-4.12.23-.242 1.293-1.427 3.218-3.528-.027.27-.579 4.632-.62 4.901-.067.498-1.359 10.704-1.426 11.202-.014.081-.081.377.067.673a.907.907 0 0 0 .323.39c.108.055.337.122.606.095.108-.013.296-.04.552-.188.552-.323.821-.862.929-1.131.175-.404.97-5.265 1.266-5.709a2.38 2.38 0 0 1 .215-.296s6.166 11.754 11.014 13.127c.04.014.094.027.134.04a2.64 2.64 0 0 0 1.333.027c.094-.013.189-.04.27-.067h.013c.43-.148.66-.35.66-.35-.781-.148-1.926-1.09-3.151-2.33-2.275-2.302-4.86-5.668-5.91-7.095l-.122-.161a4.963 4.963 0 0 1-.336-.458.186.186 0 0 0-.04-.054v-.013c-3.501-5.13 1.44-8.011 1.669-8.133h.013c.243-.175.444-.296.58-.377 5.802-3.446 7.189-4.227 7.781-5.802.471-1.266.404-2.963-.498-3.757-1.064-.902-2.935-.296-3.891 0Zm-4.793-17.072c1.023-2.787 2.1-5.036 3.245-6.746.444-.66.929-1.306 1.48-1.979.472-.579.93-.915 1.36-.996.499.31.808.929.943 1.844.189 1.158.121 2.545-.175 4.134a39.051 39.051 0 0 1-2.962 9.142c-1.575 3.366-3.433 6.22-6.517 10.663-.12.189-.336.445-.632.754l-.324.027c-.026-.283-.04-.43-.04-.458 1.01-6.96 1.912-11.7 3.622-16.385ZM107.59 44.586l-.013.068c-.835 5.64-1.603 8.59-3.42 13.275-.498 1.225-1.306 2.868-2.437 4.9-.633 1.145-1.481 2.384-2.33 2.128-.578-.175-.646-1.683-.578-2.84.053-.499.134-1.037.242-1.603.08-.404.162-.78.27-1.13.268-1.038.713-2.626.928-3.219 1.804-4.793 3.487-7.109 6.207-11.336.014-.027.256-.337.7-.93.175-.242.566-.08.525.216-.054.27-.067.417-.094.471Zm11.512-6.462-.795.417c2.532-3.958 6.167-9.21 11.39-9.344.957 4.053-7.014 6.813-10.595 8.927ZM51.324 39.147c-.592.579-.982.942-1.171 1.09-.229.189-.808.727-1.75 1.643-.943.916-1.778 1.602-2.491 2.073.188-1.413.296-2.154.31-2.208.12-.632.336-1.602.646-2.908.31-1.306.538-2.289.687-2.962.175-.875.269-1.602.269-2.168 0-.592-.148-.996-.458-1.225-.229-.175-.579-.256-1.023-.256-.471-.08-1.01.054-1.562.31a2.512 2.512 0 0 0-.646.364c-3.259 2.06-7.123 7.997-7.123 7.997l-.633.754c.337-1.508.66-3.016.997-4.524.013-.054.013-.094.027-.12.054-.66-.054-1.092-.323-1.293-.27-.202-.754-.256-1.468-.149l-.78.431c-.553 3.864-.85 5.965-.89 6.328-.107.754.054 1.266.458 1.535.404.27.983.283 1.737.014.471-.189.93-.498 1.373-.93a31.18 31.18 0 0 0 1.926-2.207c.256-.337.74-.956 1.44-1.845s1.24-1.575 1.643-2.046c.08-.095.794-.862 2.154-2.29.094.19.148.378.175.54.027.174.04.322.027.444a3.69 3.69 0 0 1-.108.484 6.776 6.776 0 0 0-.12.39c-.095.58-.283 1.576-.566 3.003a81.918 81.918 0 0 0-.606 3.326c-.094.579-.094 1.292.013 2.167.081.727.539 1.064 1.347 1.024.66-.04 1.185-.175 1.602-.39a8.744 8.744 0 0 0 1.818-1.388c1.036-1.077 3.029-3.204 6.005-6.381l.363-.714a5.5 5.5 0 0 0-1.643.727c-.538.323-1.077.78-1.656 1.36ZM25.164 7.345c.108-.444.175-.848.202-1.185.04-.498-.377-.942-.875-.915-.04 0-.08.013-.108.013-.161.04-.296.23-.43.525-.081.202-.23.714-.485 1.535-1.576 5.21-2.384 7.877-2.41 7.984-2.155 6.651-4.444 12.643-6.854 17.975-1.265 2.787-2.598 5.156-3.998 7.109-1.077 1.494-2.222 2.692-3.42 3.58-.014.014-.04.028-.054.041a1.936 1.936 0 0 1-2.895-.66 6.836 6.836 0 0 1-.404-.942c-.538-1.454-.861-3.218-1.01-5.25l-.403-14.03c0-1.266.013-2.128.08-2.222a.866.866 0 0 0 .095-.808 17.6 17.6 0 0 0-.39-.956c-.176-.39-.459-.538-.863-.47-.47.08-.727.282-.767.605-.094.794-.135 1.373-.121 1.737-.04 1.602-.054 3.15-.04 4.658.013 6.692.12 9.56.161 11.39 0 .809.094 3.434.417 5.104a6.57 6.57 0 0 0 1.118 2.544c.767 1.01 1.831 1.508 3.177 1.481 1.347-.026 2.64-.498 3.878-1.386 1.521-1.064 2.962-2.545 4.308-4.43 1.32-1.858 2.518-4.053 3.595-6.597 2.747-6.45 4.942-12.616 6.598-18.527.377-1.333 1.01-3.971 1.898-7.903Z"></path>
  </g>
</svg>
